<svg id="Layer_1" data-name="Layer 1" xmlns="http://www.w3.org/2000/svg" viewBox="0 0 230 135"><defs><style>.cls-1{fill:#333;}.cls-2{fill:#cf4d4f;}.cls-3{fill:#363636;}</style></defs><title>acrlogo</title><path class="cls-1" d="M3.22,126.76c1.49-4.76,2.93-9.39,4.38-14Q24.39,59.14,41.16,5.54c.27-.87.61-1.17,1.54-1.16q12.48.06,25,0a1.54,1.54,0,0,1,1.75,1.24q8.53,24.89,17.12,49.77,12.09,35.11,24.16,70.23l.34,1c-.33.25-.66.15-1,.15-7.8,0-15.6,0-23.4,0a1.2,1.2,0,0,1-1.4-1c-2.34-7.37-4.76-14.72-7.11-22.09a1.37,1.37,0,0,0-1.58-1.14q-20,.05-40,0c-1,0-1.35.34-1.61,1.24-2.08,7.24-4.23,14.47-6.31,21.72-.27.93-.6,1.31-1.67,1.31-7.52-.06-15,0-22.56,0Zm38.46-45.6H58.51c3.8,0,7.6,0,11.4,0,.81,0,1-.21.68-.93a4.09,4.09,0,0,1-.14-.46L57.72,40.41c-.67-2.06-1.36-4.12-2-6.18l-.25,0Z"/><path class="cls-1" d="M169.5,130.84a62.46,62.46,0,0,1-57.71-39.29,64.82,64.82,0,0,1-.67-47.65c.53-1.46.54-1.46,1.91-.85q8.43,3.75,16.87,7.48c.69.3,1,.51.63,1.37a40.72,40.72,0,0,0,23.36,53c21.68,8.4,46-1.91,54.51-23.32.27-.67.51-.71,1.12-.48q9.09,3.39,18.2,6.72c.66.24.74.49.5,1.12-8.47,21.7-23.84,35.48-46.69,40.66A54.47,54.47,0,0,1,169.5,130.84Z"/><path class="cls-2" d="M201.49,40.29c-1.3-1.24-2.53-2.41-3.74-3.62a2,2,0,0,1,.38-.54q7.11-7.37,14.21-14.75c.5-.52.79-.46,1.22,0,1.16,1.32,2.33,2.63,3.54,3.9.46.49.31.75-.12,1.14Q209.43,33.2,201.91,40A4.58,4.58,0,0,1,201.49,40.29Z"/><path class="cls-2" d="M204.87,14.33l-.35.57q-5.49,8.71-11,17.43c-.37.59-.64.76-1.29.33-1.09-.73-2.25-1.37-3.41-2-.51-.27-.59-.48-.28-1q5.52-9,11-18c.29-.47.52-.74,1.1-.35,1.22.83,2.49,1.6,3.73,2.4C204.61,13.89,204.85,14,204.87,14.33Z"/><path class="cls-3" d="M185,4.83c1.72.55,3.56,1.1,5.36,1.75.59.21.13.7,0,1q-2.47,7-5,14c-.68,1.92-1.4,3.82-2,5.75-.21.63-.45.84-1.1.56a12.75,12.75,0,0,0-1.72-.51c-1.66-.45-1.65-.45-1.24-2.06q2.48-9.75,5-19.49C184.31,5.44,184.2,4.88,185,4.83Z"/><path class="cls-3" d="M128.42,18.69c.31,0,.43.27.58.44q6.75,7.71,13.51,15.41c.45.51.35.76-.13,1.11a16.47,16.47,0,0,0-1.27,1.09c-1.6,1.44-1.6,1.44-3.17-.13-4.36-4.34-8.71-8.69-13.1-13-.57-.56-.69-.9,0-1.48,1.08-.95,2.07-2,3.11-3C128.07,19,128.26,18.82,128.42,18.69Z"/><path class="cls-2" d="M207.46,49.54c-.36,0-.39-.37-.51-.6-.56-1-1-2.07-1.7-3-.51-.74-.45-1.05.36-1.49,3.51-1.9,7-3.87,10.46-5.82,2.19-1.23,4.4-2.44,6.58-3.7.61-.35.94-.39,1.27.33.55,1.19,1.2,2.34,1.81,3.51.19.37.35.66-.19,1q-8.89,4.82-17.76,9.68Z"/><path class="cls-3" d="M156.93,4.18c.92-.09.71.62.79,1,1,4.8,2,9.61,3,14.41.42,2,.8,4.07,1.28,6.09.17.7,0,.9-.66,1a28.5,28.5,0,0,0-3.15.73c-.57.17-.83.13-1-.53Q155,16.41,152.7,5.94c-.09-.43-.09-.68.38-.8Z"/><path class="cls-3" d="M117.71,31.19l.66.44q8.28,5.26,16.58,10.5c.63.39.71.66.25,1.26a29.64,29.64,0,0,0-1.9,2.9c-.29.49-.5.57-1,.26q-8.42-5.15-16.87-10.26c-.33-.2-.74-.32-.38-.89.79-1.25,1.52-2.53,2.28-3.79A2.81,2.81,0,0,1,117.71,31.19Z"/><path class="cls-3" d="M173.65,14.51c-.16,3.55-.34,7.11-.48,10.66,0,.66-.18,1-.89.84-1.06-.18-2.45.37-3.11-.29s-.22-2-.24-3.12c-.11-6.19-.16-12.39-.29-18.58,0-.92.24-1.18,1.13-1.11,1.15.1,2.31.12,3.47.11.78,0,1,.29.94,1.06-.21,3.47-.35,6.94-.51,10.42Z"/><path class="cls-3" d="M141.66,9.6c.4-.07.44.29.54.51q4.38,9.65,8.75,19.3c.2.43.15.65-.27.83-.22.09-.43.22-.65.31-.8.33-1.57,1.3-2.29,1s-.89-1.34-1.29-2.07c-3-5.45-6-10.91-9.06-16.34-.41-.72-.39-1.06.38-1.43,1.11-.55,2.16-1.21,3.24-1.82C141.22,9.8,141.44,9.71,141.66,9.6Z"/></svg>